{
  "title": "Flying Jatt (2016) 720p DesiSCR x264 AC3 5.1 -DDR",
  "uid": 15690796,
  "size": 1929453252,
  "categoryP": "video",
  "categoryS": "hd___movies",
  "magnet": "?xt=urn:btih:81a474cc4d3e5e2e245ab7f907f590d31761edb2&amp;dn=Flying+Jatt+%282016%29+720p+DesiSCR+x264+AC3+5.1+-DDR&amp;tr=udp%3A%2F%2Ftracker.leechers-paradise.org%3A6969&amp;tr=udp%3A%2F%2Fzer0day.ch%3A1337&amp;tr=udp%3A%2F%2Fopen.demonii.com%3A1337&amp;tr=udp%3A%2F%2Ftracker.coppersurfer.tk%3A6969&amp;tr=udp%3A%2F%2Fexodus.desync.com%3A6969",
  "seeders": 285,
  "leechers": 121,
  "uploader": "SaM",
  "files": 3,
  "time": 1472401127,
  "description": "720p DesiSCR Rip x264\r\n\r\nAC3 5.1 Hindi Audio\r\n \nhttp://extraimago.com/image/wSDu \nhttp://extraimago.com/image/wSDV \nhttp://extraimago.com/image/wSD6 \nhttp://extraimago.com/image/wSDx \nhttp://extraimago.com/image/wSDt \nhttp://extraimago.com/image/wSDo \nhttp://extraimago.com/image/wSDk \nhttp://extraimago.com/image/wSDH \nhttp://extraimago.com/image/wSDF \nhttp://extraimago.com/image/wSDD \nhttp://extraimago.com/image/wSD5 \nhttp://extraimago.com/image/wSDg \nhttp://extraimago.com/image/wSDX \nhttp://extraimago.com/image/wSDP \nhttp://extraimago.com/image/wSDG\r\n\r\nSpecs:\r\n\r\nSource: DesiSCR @ ICTV\r\n\r\nFormat : Matroska\r\nFile size : 1.78 GiB\r\nDuration : 2 h 28 min\r\nOverall bit rate : 1 720 kb/s\r\n\r\n\r\nVideo\r\nFormat : AVC\r\nFormat/Info : Advanced Video Codec\r\nFormat profile :   \r\nFormat settings, CABAC : Yes\r\nFormat settings, ReFrames : 12 frames\r\nCodec ID : V_MPEG4/ISO/AVC\r\nDuration : 2 h 28 min\r\nBit rate : 1 270 kb/s\r\nWidth : 1 280 pixels\r\nHeight : 544 pixels\r\nDisplay aspect ratio : 2.35:1\r\nFrame rate mode : Constant\r\nFrame rate : 23.976 (24000/1001) FPS\r\nColor space : YUV\r\nChroma subsampling : 4:2:0\r\nBit depth : 8 bits\r\nScan type : Progressive\r\nBits/(Pixel*Frame) : 0.076\r\nStream size : 1.32 GiB (74%)\r\nLanguage : English\r\nDefault : Yes\r\nForced : No\r\nColor range : Limited\r\nColor primaries : BT.709\r\nTransfer characteristics : BT.709\r\nMatrix coefficients : BT.709\r\n\r\nAudio\r\nID : 2\r\nFormat : AC-3\r\nFormat/Info : Audio Coding 3\r\nMode extension : CM (complete main)\r\nFormat settings, Endianness : Big\r\nCodec ID : A_AC3\r\nDuration : 2 h 28 min\r\nBit rate mode : Constant\r\nBit rate : 448 kb/s\r\nChannel(s) : 6 channels\r\nChannel positions : Front: L C R, Side: L R, LFE\r\nSampling rate : 48.0 kHz\r\nFrame rate : 31.250 FPS (1536 spf)\r\nCompression mode : Lossy\r\nDelay relative to video : 23 ms\r\nStream size : 476 MiB (26%)\r\nLanguage : Hindi\r\nDefault : Yes\r\nForced : No\r\n\r\n\r\nSAMPLE Included",
  "parsed": {
    "xt": "urn:btih:81a474cc4d3e5e2e245ab7f907f590d31761edb2",
    "dn": "Flying Jatt (2016) 720p DesiSCR x264 AC3 5.1 -DDR",
    "tr": [
      "udp://exodus.desync.com:6969",
      "udp://open.demonii.com:1337",
      "udp://tracker.coppersurfer.tk:6969",
      "udp://tracker.leechers-paradise.org:6969",
      "udp://zer0day.ch:1337"
    ],
    "infoHash": "81a474cc4d3e5e2e245ab7f907f590d31761edb2",
    "infoHashBuffer": {
      "type": "Buffer",
      "data": [
        129,
        164,
        116,
        204,
        77,
        62,
        94,
        46,
        36,
        90,
        183,
        249,
        7,
        245,
        144,
        211,
        23,
        97,
        237,
        178
      ]
    },
    "name": "Flying Jatt (2016) 720p DesiSCR x264 AC3 5.1 -DDR",
    "announce": [
      "udp://exodus.desync.com:6969",
      "udp://open.demonii.com:1337",
      "udp://tracker.coppersurfer.tk:6969",
      "udp://tracker.leechers-paradise.org:6969",
      "udp://zer0day.ch:1337"
    ],
    "urlList": []
  },
  "previous": 406,
  "peers": 176,
  "last_updated": "2016-12-25T06:12:18.218Z"
}